<svg xmlns="http://www.w3.org/2000/svg" width="108.999" height="108.382" viewBox="0 0 108.999 108.382"><defs><style>.a{fill:#fcb12b;}.b{fill:#2892fc;}.c{fill:#fad557;}.d,.e{fill:#72a3fc;}.d{stroke:#2892fc;}</style></defs><g transform="translate(-1216.501 -4548.282)"><path class="a" d="M341.25,308.175H324.164A3.164,3.164,0,0,1,321,305.011V286.332a3.164,3.164,0,1,1,6.328,0v15.515H341.25a3.164,3.164,0,1,1,0,6.328Z" transform="translate(963.711 4325.285)"/><path class="b" d="M413.6,331.723a11.6,11.6,0,1,0,11.6,11.6A11.615,11.615,0,0,0,413.6,331.723Z" transform="translate(899.797 4286.973)"/><path class="c" d="M244.164,314.5A3.164,3.164,0,0,1,241,311.339V286.332a3.164,3.164,0,1,1,6.328,0v25.007A3.164,3.164,0,0,1,244.164,314.5Z" transform="translate(1026.836 4325.285)"/><path class="a" d="M256,283.168V314.5a3.164,3.164,0,0,0,3.164-3.164V286.332A3.164,3.164,0,0,0,256,283.168Z" transform="translate(1015 4325.285)"/><path class="c" d="M100.25,308.175H83.164a3.164,3.164,0,1,1,0-6.328H97.086V286.332a3.164,3.164,0,1,1,6.328,0v18.679A3.164,3.164,0,0,1,100.25,308.175Z" transform="translate(1153.876 4325.285)"/><path class="d" d="M92.018,22.2A25.749,25.749,0,0,0,67.074,2.707,25.473,25.473,0,0,0,54.18,6.159a22.535,22.535,0,0,0-37.7,15.894,22.526,22.526,0,0,0,6.05,44.224H85.474A22.527,22.527,0,0,0,92.018,22.2Z" transform="translate(1217.001 4548.505)"/><g transform="translate(1217.001 4618.695)"><path class="e" d="M212.6,401.723a11.6,11.6,0,1,0,11.6,11.6A11.615,11.615,0,0,0,212.6,401.723Z" transform="translate(-158.602 -386.958)"/><path class="e" d="M11.6,331.723a11.6,11.6,0,1,0,11.6,11.6A11.615,11.615,0,0,0,11.6,331.723Z" transform="translate(0 -331.723)"/></g><path class="b" d="M256,401.723v23.2a11.6,11.6,0,0,0,0-23.2Z" transform="translate(1015 4231.738)"/></g></svg>