<svg xmlns="http://www.w3.org/2000/svg" width="77.634" height="74.401" viewBox="0 0 77.634 74.401"><defs><style>.a{fill:#2b4d66;}</style></defs><path class="a" d="M38.817.5C17.371.5,0,17.58,0,38.644A38.208,38.208,0,0,0,26.541,74.835c1.941.359,2.653-.822,2.653-1.834,0-.906-.032-3.306-.049-6.486C18.348,68.815,16.07,61.4,16.07,61.4c-1.766-4.4-4.318-5.58-4.318-5.58-3.516-2.365.272-2.316.272-2.316,3.9.265,5.946,3.93,5.946,3.93,3.461,5.832,9.086,4.147,11.306,3.173a8.076,8.076,0,0,1,2.458-5.1c-8.621-.954-17.681-4.234-17.681-18.849A14.573,14.573,0,0,1,18.047,26.42c-.437-.964-1.747-4.842.34-10.1,0,0,3.251-1.022,10.675,3.911a37.218,37.218,0,0,1,19.409,0C55.845,15.3,59.1,16.324,59.1,16.324a13.714,13.714,0,0,1,.388,10.1,14.632,14.632,0,0,1,3.979,10.235c0,14.653-9.074,17.879-17.71,18.817,1.359,1.145,2.62,3.484,2.62,7.058,0,5.1-.049,9.206-.049,10.445,0,1,.679,2.193,2.669,1.811A38.092,38.092,0,0,0,77.634,38.644C77.634,17.58,60.254.5,38.817.5Z" transform="translate(0 -0.5)"/></svg>