<svg xmlns="http://www.w3.org/2000/svg" width="306.741" height="195.399" viewBox="0 0 306.741 195.399"><defs><style>.a{fill:#edf5ff;}.b{fill:#7987e7;}.c{fill:#fff;stroke:#707070;}</style></defs><g transform="translate(-1369 -4245.718)"><path class="a" d="M130.071,33.613c18.451,0,16.016,37.466,36.322,36.636,71.5-2.922,89.739,115,24.129,133.763-9.787,2.8-50.305,29.512-129.159,18.78C-16.5,212.195-62.344,151.9-68.026,143.6c-5.007-7.309-23.088-50.865,23.735-92.109,17.226-17.141,32.616-16.923,61.813-19.926C62.753,26.914,111.6,33.613,130.071,33.613Z" transform="translate(1444.655 4215.796)"/><g transform="translate(0)"><rect class="b" width="15" height="38" transform="translate(1456 4366)"/><rect class="b" width="15" height="38" transform="translate(1574 4326)"/><path class="c" d="M8039.02-9495.747v28.315l-12.864,1.883-7.687,3.372-16.315,1.8-6.981-2.824v-5.176l10.9-1.021-11.687-1.412-1.333-4.627,2.745-3.217-3.687-2.9,3.059-6.039-2.588-2.824,1.8-4.706,4.079-1.255-6.353-4.706v-4.785l11.246-.4,1.486,10.516h6.5l.975-10.516h12.634l5.674,9.024Z" transform="translate(-6465.615 13827)"/><path class="b" d="M307.582,55.177H292.257a1.679,1.679,0,0,0-1.678,1.678V60.8h-2.157a10.065,10.065,0,0,1-5.264-1.723,10.3,10.3,0,0,1-.493-1.308c-.827-2.485-2.369-7.111-8.6-7.111h-8.062V43.721a22.229,22.229,0,1,0-11.345,0v6.934H244.372a1.679,1.679,0,0,0-1.678,1.678V52.5c0,4.4,1.847,7.748,4.846,9.236a5.669,5.669,0,0,0-2.573,9.652,6.079,6.079,0,0,0,.072,8.688,5.942,5.942,0,0,0,1.159,9.5,5.935,5.935,0,0,0,4.892,9.307h12.475c4.741,0,9.337-.212,13.463-2.771a22.155,22.155,0,0,1,11.693-3.332h1.859v3.3a1.677,1.677,0,0,0,1.678,1.678h15.324a1.678,1.678,0,0,0,1.678-1.678V56.856a1.679,1.679,0,0,0-1.678-1.678ZM260.333,44.457a22.464,22.464,0,0,0,2.316-.12V61.572h-4.633V44.337a22.481,22.481,0,0,0,2.316.12ZM241.462,22.229a18.873,18.873,0,1,1,6.977,14.654,18.872,18.872,0,0,1-6.977-14.654Zm13.2,31.783v5.216h-3.342c-3.785,0-4.867-3.089-5.162-5.216Zm34.06,35.4a25.517,25.517,0,0,0-13.462,3.837c-3.375,2.093-7.457,2.267-11.694,2.267H251.09a2.585,2.585,0,1,1,0-5.169h6.74a1.678,1.678,0,1,0,0-3.357h-8.693a2.6,2.6,0,1,1,0-5.206h6.029a1.678,1.678,0,0,0,0-3.357h-5.9a2.737,2.737,0,0,1,0-5.473h5.9a1.678,1.678,0,0,0,0-3.357h-2.375a1.648,1.648,0,0,0-.243-.019h-3.688a2.327,2.327,0,0,1,0-4.655h15.468a4.977,4.977,0,0,0,4.954-4.443,1.679,1.679,0,0,0-3.278-.657V54.012h8.064c3.536,0,4.473,2,5.413,4.815.43,1.293.8,2.409,1.777,3.019a13.4,13.4,0,0,0,7.164,2.309h2.157V89.416ZM305.9,94.39H293.936V58.534H305.9Zm0,0" transform="translate(1282.356 4268.631)"/><path class="b" d="M146.883,209.653l11.624-11.624a1.679,1.679,0,1,0-2.373-2.374L145.7,206.094l-4.626-4.626a1.678,1.678,0,1,0-2.373,2.373l5.813,5.813a1.678,1.678,0,0,0,2.373,0Zm0,0" transform="translate(1354.324 4128.063)"/><path class="b" d="M302.551,66.813a1.678,1.678,0,0,0,2.373-2.373L300.083,59.6l4.841-4.841a1.678,1.678,0,0,0-2.373-2.373l-4.841,4.841-4.841-4.841a1.678,1.678,0,1,0-2.373,2.373l4.842,4.841L290.5,64.44a1.678,1.678,0,1,0,2.373,2.373l4.841-4.841Zm0,0" transform="translate(1244.98 4231.26)"/><path class="c" d="M7992.115-9495.747v28.315l12.864,1.883,7.687,3.372,16.315,1.8,6.981-2.824v-5.176l-10.9-1.021,13.02-1.207v-4.832l-2.745-3.217,3.687-2.9-3.059-6.039,2.588-2.824-1.8-4.706-4.079-1.255,6.353-4.706v-4.785l-11.246-.4-1.486,10.516h-6.5l-.975-10.516h-12.634l-5.674,9.024Z" transform="translate(-6520.615 13867)"/><path class="b" d="M71.655,164.725a22.228,22.228,0,1,0-27.9,21.493v6.934H35.69c-6.228,0-7.768,4.626-8.6,7.112a10.256,10.256,0,0,1-.493,1.308,10.072,10.072,0,0,1-5.263,1.723H19.181v-3.942a1.679,1.679,0,0,0-1.678-1.678H2.178A1.678,1.678,0,0,0,.5,199.352v39.213a1.678,1.678,0,0,0,1.678,1.678H17.5a1.679,1.679,0,0,0,1.678-1.678v-3.3h1.859A22.175,22.175,0,0,1,32.732,238.6c4.126,2.56,8.722,2.772,13.463,2.772H58.67a5.935,5.935,0,0,0,4.892-9.307,5.941,5.941,0,0,0,1.159-9.495,6.083,6.083,0,0,0,.072-8.69,5.67,5.67,0,0,0-2.573-9.651c3-1.489,4.846-4.835,4.846-9.236v-.165a1.679,1.679,0,0,0-1.678-1.678H55.1v-6.934a22.318,22.318,0,0,0,16.555-21.493ZM51.743,204.069H47.11V186.833a22.331,22.331,0,0,0,4.633,0ZM30.555,164.725a18.872,18.872,0,1,1,6.977,14.654,18.871,18.871,0,0,1-6.977-14.654ZM15.824,236.887H3.857V201.031H15.824Zm47.4-27.134A2.33,2.33,0,0,1,60.9,212.08H57.212a1.653,1.653,0,0,0-.244.019H54.593a1.678,1.678,0,1,0,0,3.357h5.9a2.737,2.737,0,0,1,0,5.473h-5.9a1.678,1.678,0,0,0,0,3.357h6.03a2.6,2.6,0,1,1,0,5.206H51.93a1.678,1.678,0,1,0,0,3.357h6.741a2.585,2.585,0,1,1,0,5.169H46.2c-4.236,0-8.318-.174-11.693-2.267a25.524,25.524,0,0,0-13.463-3.837H19.181V206.651h2.158a13.394,13.394,0,0,0,7.163-2.309c.975-.609,1.347-1.725,1.778-3.018.939-2.82,1.877-4.815,5.412-4.815h8.063v5.818a1.678,1.678,0,0,0-3.277.657,4.976,4.976,0,0,0,4.954,4.443H60.9a2.33,2.33,0,0,1,2.326,2.326Zm.377-13.244c-.3,2.127-1.377,5.216-5.161,5.216H55.1v-5.217Zm0,0" transform="translate(1453.5 4165.992)"/></g></g></svg>