<svg xmlns="http://www.w3.org/2000/svg" width="306.741" height="195.398" viewBox="0 0 306.741 195.398"><defs><style>.a{fill:#fed3d7;}.b{fill:#f82f45;}.c{fill:#fff;stroke:#f82f45;stroke-width:3px;}</style></defs><g transform="translate(-819 -4230.719)"><path class="a" d="M130.071,33.613c18.451,0,16.016,37.466,36.322,36.636,71.5-2.922,89.739,115,24.129,133.763-9.787,2.8-50.305,29.512-129.159,18.78C-16.5,212.2-62.344,151.9-68.026,143.6c-5.007-7.309-23.088-50.865,23.735-92.109,17.226-17.141,32.616-16.923,61.813-19.926C62.753,26.914,111.6,33.613,130.071,33.613Z" transform="translate(894.655 4200.796)"/><g transform="translate(912 4268.631)"><path class="b" d="M119.55,59.775A59.775,59.775,0,1,0,1.909,74.806a11.964,11.964,0,0,1,11.77-9.926h.562A45.823,45.823,0,1,1,59.775,105.6c-1.435,0-2.853-.076-4.254-.205v1.323A11.972,11.972,0,0,1,47,118.167,59.766,59.766,0,0,0,119.55,59.775Z"/><path class="a" d="M45.482,0A45.482,45.482,0,1,1,.867,54.363,44.969,44.969,0,0,1,0,45.482,45.482,45.482,0,0,1,45.482,0Z" transform="translate(14 14.188)"/><path class="b" d="M156.924,106.317c.018,0,.037,0,.055,0a4.473,4.473,0,0,0,4.573-4.362V61.472a4.578,4.578,0,0,0-9.145,0v17.6a4.237,4.237,0,0,0-.112.936v21.948a4.473,4.473,0,0,0,4.573,4.362C156.887,106.323,156.905,106.317,156.924,106.317Z" transform="translate(-97.294 -36.189)"/><path class="c" d="M52.019,216.592v-22.27a6.343,6.343,0,0,0-6.337-6.337H21.921a6.343,6.343,0,0,0-6.337,6.337v23.762a6.343,6.343,0,0,0,6.337,6.337H45.683a6.343,6.343,0,0,0,6.337-6.337v-1.492ZM45.682,198.5a28.238,28.238,0,0,0-10.955,8.64A28.658,28.658,0,0,0,30,215.216a3.014,3.014,0,0,1-.58.95c-.833.852-2.393-.28-2.716-.533a15.638,15.638,0,0,0-4.785-2.9c-2.588-.743-1.341-2.2-.048-1.595.154.013-.165-.047,0,0a23.6,23.6,0,0,1,6.6,3.247,41.549,41.549,0,0,1,4.7-7.944A42.338,42.338,0,0,1,45.3,196.482C47.956,195.4,48.279,197.8,45.682,198.5Z" transform="translate(-7.816 -112.062)"/></g></g></svg>