<svg xmlns="http://www.w3.org/2000/svg" width="306.741" height="195.399" viewBox="0 0 306.741 195.399"><defs><style>.a{fill:#24f184;opacity:0.1;}.b{fill:#33b771;}</style></defs><g transform="translate(-229 -4245.718)"><path class="a" d="M130.071,33.613c18.451,0,16.016,37.466,36.322,36.636,71.5-2.922,89.739,115,24.129,133.763-9.787,2.8-50.305,29.512-129.159,18.78C-16.5,212.195-62.344,151.9-68.026,143.6c-5.007-7.309-23.088-50.865,23.735-92.109,17.226-17.141,32.616-16.923,61.813-19.926C62.753,26.914,111.6,33.613,130.071,33.613Z" transform="translate(304.655 4215.796)"/><g transform="translate(319.399 4285)"><g transform="translate(13.601 30.081)"><g transform="translate(0)"><path class="b" d="M110.988,217.489h-4.5V152.168a5.52,5.52,0,0,0-5.514-5.514H90.92a5.52,5.52,0,0,0-5.514,5.514v65.321H73.983V181.763a5.52,5.52,0,0,0-5.514-5.514H58.414a5.52,5.52,0,0,0-5.514,5.514v35.726H41.477v-18.5a5.52,5.52,0,0,0-5.514-5.514H25.907a5.52,5.52,0,0,0-5.514,5.514v18.5H15.652a2.051,2.051,0,1,0,0,4.1h95.336a2.051,2.051,0,1,0,0-4.1Zm-73.614,0h.439c0-.778-.061-19.914.718-19.914H35.963a1.413,1.413,0,0,1,1.412,1.412v18.5Zm32.507,0H57l12.879.665c0-.778-.778-.665,0-.665l.509-36.378c.778,0-.509-.126-.509.652Zm32.507,0h.819c0-.778.017-66.733.8-66.733h-3.026a1.413,1.413,0,0,1,1.412,1.412Z" transform="translate(-13.601 -146.654)"/></g></g><g transform="translate(31.189)"><g transform="translate(0)"><path class="b" d="M174.643,2.157A2.044,2.044,0,0,0,172.49,0c-.033,0-.066,0-.1,0H159.982a2.051,2.051,0,0,0,0,4.1h7.662L147.367,24.379l-7.647-7.647a2.051,2.051,0,0,0-2.9,0L99.947,53.606a2.051,2.051,0,0,0,2.9,2.9L138.27,21.084l7.647,7.647a2.051,2.051,0,0,0,2.9,0L170.545,7v6.935a2.051,2.051,0,0,0,4.1,0V2.256C174.647,2.223,174.644,2.19,174.643,2.157Z" transform="translate(-99.346)"/></g></g><g transform="translate(24.275 60.162)"><circle class="b" cx="2.051" cy="2.051" r="2.051"/></g></g></g></svg>